<svg width="52" height="48" viewBox="0 0 52 48" fill="none" xmlns="http://www.w3.org/2000/svg">
<rect width="52" height="48" rx="10" fill="#FFEED4"/>
<path d="M42.7392 30.1572H9.26085V12.7005C9.26085 11.5887 10.1651 10.6844 11.277 10.6844H40.723C41.8345 10.6844 42.7392 11.5887 42.7392 12.7005V30.1572ZM10.0048 29.4133H41.9952V12.7005C41.9952 11.999 41.4246 11.4283 40.723 11.4283H11.277C10.5754 11.4283 10.0048 11.999 10.0048 12.7005V29.4133Z" fill="#331B3B"/>
<path d="M40.723 34.7787H11.277C10.1651 34.7787 9.26085 33.8741 9.26085 32.7626V29.4133H42.7392V32.7626C42.7392 33.8741 41.8345 34.7787 40.723 34.7787ZM10.0048 30.1572V32.7626C10.0048 33.4641 10.5754 34.0348 11.277 34.0348H40.723C41.4246 34.0348 41.9952 33.4641 41.9952 32.7626V30.1572H10.0048V30.1572Z" fill="#331B3B"/>
<path d="M31.1426 39.3775H20.8574C20.6967 39.3775 20.5542 39.2745 20.504 39.1216C20.4538 38.9687 20.5077 38.8013 20.6371 38.7061C22.0499 37.6687 22.9929 36.0837 23.2243 34.3577C23.2488 34.1732 23.4065 34.0352 23.5929 34.0352H28.4063C28.5927 34.0352 28.7504 34.1728 28.775 34.3577C29.0064 36.084 29.9497 37.6687 31.3625 38.7061C31.4923 38.8013 31.5459 38.9687 31.4956 39.1216C31.4454 39.2745 31.3037 39.3775 31.1426 39.3775ZM21.8662 38.6336H30.1342C29.0767 37.592 28.3546 36.2391 28.089 34.7787H23.911C23.6457 36.2391 22.9237 37.592 21.8662 38.6336Z" fill="#331B3B"/>
<path d="M31.9718 41.316H20.0282C19.2887 41.316 18.6872 40.7145 18.6872 39.975C18.6872 39.2355 19.2887 38.634 20.0282 38.634H31.9718C32.7113 38.634 33.3128 39.2355 33.3128 39.975C33.3128 40.7145 32.7113 41.316 31.9718 41.316ZM20.0282 39.3776C19.699 39.3776 19.4312 39.6454 19.4312 39.9746C19.4312 40.3038 19.699 40.5716 20.0282 40.5716H31.9718C32.3014 40.5716 32.5688 40.3038 32.5688 39.9746C32.5688 39.6454 32.301 39.3776 31.9718 39.3776H20.0282Z" fill="#331B3B"/>
<path d="M26.6327 32.468H25.3672C25.1619 32.468 24.9953 32.3017 24.9953 32.096C24.9953 31.8903 25.1619 31.724 25.3672 31.724H26.6327C26.8384 31.724 27.0047 31.8903 27.0047 32.096C27.0047 32.3017 26.8384 32.468 26.6327 32.468Z" fill="#331B3B"/>
<path d="M22.7582 24.0393C21.4592 24.0393 21.085 22.8832 20.7841 21.9543C20.4761 21.0032 20.2529 20.4203 19.5703 20.4203C19.365 20.4203 19.1983 20.2536 19.1983 20.0483C19.1983 19.843 19.365 19.6763 19.5703 19.6763C20.2529 19.6763 20.4765 19.0934 20.7845 18.1423C21.0854 17.2131 21.4596 16.0573 22.7586 16.0573C22.9639 16.0573 23.1306 16.224 23.1306 16.4293C23.1306 16.6346 22.9639 16.8013 22.7586 16.8013C22.0373 16.8013 21.8074 17.3979 21.4923 18.3714C21.3023 18.9588 21.0821 19.638 20.6145 20.0483C21.0821 20.4586 21.3023 21.1378 21.4923 21.7252C21.8074 22.6987 22.0373 23.2953 22.7586 23.2953C22.9639 23.2953 23.1306 23.462 23.1306 23.6673C23.1306 23.8726 22.9635 24.0393 22.7582 24.0393Z" fill="#331B3B"/>
<path d="M29.2418 24.0393C29.0361 24.0393 28.8699 23.8726 28.8699 23.6673C28.8699 23.462 29.0361 23.2953 29.2418 23.2953C29.9627 23.2953 30.193 22.6987 30.5081 21.7248C30.6981 21.1378 30.9183 20.4582 31.3859 20.0483C30.918 19.638 30.6978 18.9588 30.5081 18.3718C30.1926 17.3979 29.9627 16.8013 29.2418 16.8013C29.0361 16.8013 28.8699 16.6346 28.8699 16.4293C28.8699 16.224 29.0361 16.0573 29.2418 16.0573C30.5408 16.0573 30.915 17.2134 31.2159 18.1423C31.5239 19.0934 31.7471 19.6763 32.4297 19.6763C32.6354 19.6763 32.8017 19.843 32.8017 20.0483C32.8017 20.2536 32.6354 20.4203 32.4297 20.4203C31.7471 20.4203 31.5236 21.0032 31.2156 21.9543C30.915 22.8832 30.5408 24.0393 29.2418 24.0393Z" fill="#331B3B"/>
<path d="M24.5377 24.9034C24.4987 24.9034 24.4589 24.8971 24.4195 24.884C24.2249 24.8186 24.1196 24.6077 24.1851 24.4131L27.1907 15.4473C27.2562 15.2527 27.4671 15.1478 27.6616 15.2129C27.8566 15.2784 27.9618 15.4893 27.8964 15.6838L24.8908 24.6497C24.8383 24.8048 24.6932 24.9034 24.5377 24.9034Z" fill="#331B3B"/>
</svg>
